<svg xmlns="http://www.w3.org/2000/svg" width="256" height="256" viewBox="0 0 256 256">
  <rect width="256" height="256" fill="#15141b"/>
  <g fill="#24232c" stroke="#08070b" stroke-width="5">
    <path d="M0 0H70L91 25L75 61H0ZM76 0H180L198 25L181 61H80L96 26ZM185 0H256V61H187L204 25ZM0 66H118L137 92L119 127H0ZM124 66H256V127H126L144 93ZM0 132H64L84 157L69 193H0ZM70 132H184L202 157L185 193H75L91 158ZM190 132H256V193H191L208 157ZM0 198H122L141 222L126 256H0ZM128 198H256V256H132L148 222Z"/>
  </g>
  <g fill="#302e3b" opacity=".75">
    <path d="M6 5H66L84 26L71 56H6ZM101 5H176L190 26L176 56H87L102 28ZM209 5H251V56H193L210 27ZM6 71H114L130 93L115 122H6ZM148 71H251V122H132L150 94ZM6 137H60L77 158L65 188H6ZM95 137H180L194 158L180 188H82L97 159ZM212 137H251V188H197L214 159ZM6 203H118L134 223L122 251H6ZM152 203H251V251H133L150 223Z"/>
  </g>
  <g fill="none" stroke="#574b68" stroke-width="1.5" opacity=".8">
    <path d="M0 61H75L91 25M80 61H181L198 25M187 61H256M0 127H119L137 92M126 127H256M0 193H69L84 157M75 193H185L202 157M191 193H256M0 256H126L141 222M132 256H256"/>
  </g>
  <g fill="none" stroke="#9a55cf" stroke-width="4" opacity=".8">
    <path d="M0 31H54L72 47M98 31H174L188 47M213 31H256M0 98H101L116 113M154 98H256M0 164H51L66 179M98 164H178L192 179M216 164H256M0 229H107L122 244M160 229H256"/>
  </g>
  <g fill="none" stroke="#d298ff" stroke-width="1.2" opacity=".95">
    <path d="M0 29H55L74 45M99 29H175L190 45M212 29H256M0 96H102L118 111M153 96H256M0 162H52L68 177M99 162H179L194 177M215 162H256M0 227H108L124 242M159 227H256"/>
  </g>
  <g fill="#72657d" opacity=".45">
    <path d="M17 14L25 9L33 14L25 19ZM50 45L58 40L66 45L58 50ZM222 11L230 6L238 11L230 16ZM18 80L26 75L34 80L26 85ZM95 113L103 108L111 113L103 118ZM218 78L226 73L234 78L226 83ZM17 145L25 140L33 145L25 150ZM146 177L154 172L162 177L154 182ZM219 145L227 140L235 145L227 150ZM17 211L25 206L33 211L25 216ZM101 243L109 238L117 243L109 248ZM220 211L228 206L236 211L228 216Z"/>
  </g>
  <path d="M20 54L45 48M116 17L148 10M33 121L64 114M175 186L222 175M49 246L82 238" stroke="#777181" stroke-width="1.4" opacity=".24"/>
</svg>
